<svg xmlns="http://www.w3.org/2000/svg" width="512" height="512" viewBox="0 0 512 512">
  <defs>
    <linearGradient id="paper" x1="0" y1="0" x2="1" y2="1">
      <stop offset="0" stop-color="#f3dfad"/>
      <stop offset="1" stop-color="#d9bd77"/>
    </linearGradient>
  </defs>
  <rect width="512" height="512" rx="108" fill="url(#paper)"/>
  <circle cx="256" cy="256" r="172" fill="#f8edcf" stroke="#9f3b2f" stroke-width="24"/>
  <path d="M124 245L256 142l132 103-30 6v128H154V251z" fill="#3e5544"/>
  <path d="M167 238h178l-25-24H192z" fill="#b34b38"/>
  <path d="M205 266h102v113H205z" fill="#e8cf95"/>
  <path d="M256 273v97M224 302h64M224 334h64" stroke="#946735" stroke-width="13" stroke-linecap="round"/>
  <path d="M256 150c-34-54-74-55-91-44 19 49 53 70 91 44zm0 0c35-54 75-55 92-44-19 49-54 70-92 44z" fill="#708b54"/>
</svg>

